<svg xmlns="http://www.w3.org/2000/svg" width="27.649" height="44.733" viewBox="0 0 27.649 44.733"><defs><style>.a{fill:#f79410;}.b{fill:#ff5f00;}.c{fill:#eb001b;}.d{fill:#f79e1b;}</style></defs><g transform="translate(0 44.733) rotate(-90)"><path class="a" d="M1.165.537V0h-.14L.863.368.7,0H.562V.537h.1v-.4L.813.481h.1l.151-.35V.537h.1Zm-.887,0V.092H.457V0H0V.092H.179V.537h.1Z" transform="translate(43.136 21.854)"/><path class="b" d="M12.1,21.737H0V0H12.1Z" transform="translate(16.319 2.955)"/><path class="c" d="M17.086,13.824a13.8,13.8,0,0,1,5.28-10.869,13.824,13.824,0,1,0,0,21.737,13.8,13.8,0,0,1-5.28-10.869" transform="translate(0)"/><path class="d" d="M22.367,13.824A13.824,13.824,0,0,1,0,24.693,13.8,13.8,0,0,0,5.28,13.824,13.8,13.8,0,0,0,0,2.956,13.823,13.823,0,0,1,22.366,13.824" transform="translate(22.366 0)"/></g></svg>